<svg xmlns="http://www.w3.org/2000/svg" width="102.529" height="100" viewBox="0 0 102.529 100">
  <path id="Icon_akar-github-fill" data-name="Icon akar-github-fill" d="M51.265,0A51.267,51.267,0,0,0,35.052,99.9c2.563.449,3.524-1.089,3.524-2.435,0-1.218-.064-5.255-.064-9.548C25.632,90.29,22.3,84.779,21.275,81.9c-.577-1.474-3.076-6.024-5.255-7.241-1.794-.961-4.357-3.332-.064-3.4,4.037-.064,6.921,3.717,7.882,5.255,4.614,7.754,11.983,5.575,14.931,4.229a10.784,10.784,0,0,1,3.268-6.857c-11.406-1.282-23.325-5.7-23.325-25.312A19.951,19.951,0,0,1,23.966,34.8c-.513-1.282-2.307-6.536.513-13.585,0,0,4.293-1.346,14.1,5.255a48.332,48.332,0,0,1,25.632,0c9.8-6.664,14.1-5.255,14.1-5.255,2.82,7.049,1.025,12.3.513,13.585a19.835,19.835,0,0,1,5.255,13.777c0,19.673-11.983,24.03-23.39,25.312,1.858,1.6,3.46,4.678,3.46,9.484,0,6.857-.064,12.368-.064,14.1,0,1.346.961,2.948,3.524,2.435A51.292,51.292,0,0,0,51.265,0Z" fill="#551f1f"/>
</svg>
