<svg xmlns="http://www.w3.org/2000/svg" width="100" height="100" viewBox="0 0 100 100">
  <path id="Icon_fa-brands-square-instagram" data-name="Icon fa-brands-square-instagram" d="M50,40.344A11.906,11.906,0,1,0,61.911,52.251,11.906,11.906,0,0,0,50,40.344Zm27.837-9.152A12.054,12.054,0,0,0,71.049,24.4C66.362,22.554,55.2,22.969,50,22.969S33.65,22.538,28.949,24.4a12.054,12.054,0,0,0-6.788,6.788c-1.848,4.688-1.435,15.859-1.435,21.056S20.313,68.6,22.17,73.306a12.054,12.054,0,0,0,6.788,6.788c4.688,1.85,15.848,1.435,21.051,1.435s16.348.431,21.049-1.435a12.054,12.054,0,0,0,6.788-6.788c1.864-4.687,1.435-15.859,1.435-21.056S79.71,35.9,77.846,31.194ZM50,70.554A18.281,18.281,0,1,1,62.949,65.2,18.3,18.3,0,0,1,50,70.554Zm19.058-33.1a1.771,1.771,0,1,1,.009.009ZM89.286,2.25H10.714A10.714,10.714,0,0,0,0,12.964V91.536A10.714,10.714,0,0,0,10.714,102.25H89.286A10.714,10.714,0,0,0,100,91.536V12.964A10.714,10.714,0,0,0,89.286,2.25ZM85.464,66.982c-.288,5.721-1.594,10.79-5.77,14.955s-9.241,5.5-14.955,5.77c-5.9.333-23.569.333-29.464,0-5.721-.288-10.772-1.6-14.955-5.77s-5.5-9.246-5.77-14.955c-.333-5.9-.333-23.574,0-29.464.288-5.721,1.578-10.79,5.77-14.955s9.257-5.482,14.955-5.754c5.9-.333,23.569-.333,29.464,0,5.721.288,10.788,1.6,14.955,5.77s5.5,9.246,5.77,14.967C85.8,43.42,85.8,61.08,85.464,66.982Z" transform="translate(0 -2.25)" fill="#551f1f"/>
</svg>
