<svg xmlns="http://www.w3.org/2000/svg" width="99.997" height="100" viewBox="0 0 99.997 100">
  <path id="Icon_corebrands-linkedin" data-name="Icon corebrands-linkedin" d="M85.185,85.219H70.395V62.011c0-5.534-.116-12.646-7.734-12.646-7.712,0-8.887,6-8.887,12.237V85.216H38.964V37.5H53.189V44h.191c1.987-3.759,6.822-7.712,14.034-7.712,15,0,17.787,9.878,17.787,22.721v26.2ZM22.234,30.974a8.6,8.6,0,1,1,8.609-8.6,8.593,8.593,0,0,1-8.609,8.6Zm7.419,54.245H14.812V37.5h14.84ZM92.61,0H7.375A7.29,7.29,0,0,0,0,7.209V92.791A7.29,7.29,0,0,0,7.375,100H92.594a7.319,7.319,0,0,0,7.4-7.209V7.209A7.319,7.319,0,0,0,92.594,0Z" fill="#551f1f"/>
</svg>
